<svg xmlns="http://www.w3.org/2000/svg" width="200" height="67.093" viewBox="0 0 200 67.093"><defs><clipPath id="a"><path data-name="Path 1" d="M84.819 90.945h.881V40.188h-.882zm1.52-1.476h.881v-49.28h-.881zm1.519-1.477h.881v-47.8h-.881zm1.519-1.476h.881V40.189h-.881zm1.52-1.477h.881v-44.85H90.9zm1.518-1.476h.885V40.189h-.882zm7.291 7.382h.881V40.188h-.881zm1.519-1.476h.881v-49.28h-.881zm1.519-1.477h.881v-47.8h-.881zm1.519-1.476h.881V40.189h-.881zm1.52-1.477h.881v-44.85h-.881zm1.519-1.476h.881V40.189h-.883z" transform="translate(-84.819 -40.188)" fill="none"/></clipPath><clipPath id="b"><path data-name="Rectangle 2" fill="none" d="M0 0h199.999v67.092H0z"/></clipPath><clipPath id="c"><path data-name="Rectangle 3" fill="none" d="M0 0h199.983v67.092H0z"/></clipPath></defs><g data-name="Group 1" transform="translate(18.17)" clip-path="url(#a)"><path data-name="Path 45265" d="M0 0h23.363v50.757H0z" fill="#007bc7"/></g><g data-name="Group 4"><g data-name="Group 3" clip-path="url(#b)" transform="translate(0 .001)"><path data-name="Path 2" d="M188.927 51.583h4.492v-7.024L200 34.164h-5.093l-3.734 6.425-3.787-6.425h-5.066l6.606 10.395zm-9.972-11.675a2.009 2.009 0 01-2.168 1.959h-3.552v-3.915h3.552a2.009 2.009 0 012.168 1.956m-.5 11.674h5.145l-3.552-6.4a5.278 5.278 0 003.473-5.223c0-3.238-2.193-5.8-6.058-5.8h-8.722v17.424h4.491v-5.9h2.3zm-16.5-11.674a2.008 2.008 0 01-2.168 1.959h-3.552v-3.915h3.552a2.008 2.008 0 012.168 1.956m-.5 11.674h5.145l-3.552-6.4a5.277 5.277 0 003.473-5.223c0-3.238-2.194-5.8-6.059-5.8h-8.722v17.424h4.492v-5.9h2.3zm-20.4-13.5l2.455 7.078h-4.883zm4.519 13.5h4.881l-6.581-17.419h-5.641l-6.555 17.419h4.884l.888-2.637h7.233zm-31.6-8.7c0 5.537 4.23 9.01 9.427 9.01a10.063 10.063 0 007.7-3.394v-6.812h-8.408v3.734h4v1.462a5.425 5.425 0 01-3.291 1.045 5.044 5.044 0 010-10.081 4.329 4.329 0 013.682 2.063l3.761-1.984a8.194 8.194 0 00-7.443-4.048c-5.2 0-9.427 3.473-9.427 9.01m-13.11 2.377c0 3.97 2.95 6.633 6.894 6.633a6.114 6.114 0 005.171-2.324l-2.612-2.454a2.84 2.84 0 01-2.377 1.227 3.071 3.071 0 010-6.137 2.758 2.758 0 012.377 1.2l2.612-2.428a6.047 6.047 0 00-5.171-2.324c-3.944 0-6.894 2.664-6.894 6.607m-6.685 6.32h4.492v-17.42H92.43l-3.657 9.872-3.63-9.872h-6.241v17.419h4.491V39.831l4.388 11.752h1.984l4.414-11.752z" fill="#454648"/><path data-name="Path 3" d="M170.832 26.752h4.494V9.333h-4.491v6.5h-7.234v-6.5h-4.495v17.419h4.492v-7h7.234zm-21.389.313a8.153 8.153 0 007.731-4.674l-3.866-1.828a4.225 4.225 0 01-3.865 2.533 5.051 5.051 0 010-10.081 4.225 4.225 0 013.865 2.533l3.866-1.828a8.1 8.1 0 00-7.731-4.675c-5.223 0-9.3 3.63-9.3 9.01 0 5.354 4.074 9.01 9.3 9.01m-25.226-2.77a10.655 10.655 0 007.731 2.768c4.674 0 7.26-2.324 7.26-5.824 0-3.943-3.97-4.779-6.842-5.38-1.933-.366-3-.679-3-1.593 0-.757.575-1.358 2.064-1.358a8.1 8.1 0 014.909 1.8l2.455-3.212a10.627 10.627 0 00-7.078-2.429c-4.465 0-6.946 2.533-6.946 5.459 0 4.126 4.021 4.857 6.894 5.432 1.854.391 2.977.784 2.977 1.775 0 .835-.94 1.489-2.482 1.489a7.871 7.871 0 01-5.562-2.3zm-9.323-11.047l2.455 7.078h-4.883zm4.518 13.5h4.884l-6.581-17.419h-5.641l-6.555 17.419h4.883l.889-2.637h7.235zm-19.086-11.669a2.009 2.009 0 01-2.168 1.959h-3.552V13.12h3.552a2.009 2.009 0 012.168 1.959m-.5 11.674h5.144l-3.551-6.4a5.278 5.278 0 003.473-5.223c0-3.239-2.194-5.8-6.058-5.8h-8.722v17.422h4.492v-5.9h2.3zm-20.4-13.5l2.455 7.078h-4.884zm4.518 13.5h4.882L82.245 9.334h-5.64L70.05 26.753h4.883l.888-2.637h7.234zm-25.305-3.734V19.78h4.518a1.612 1.612 0 011.724 1.646 1.56 1.56 0 01-1.724 1.593zm0-6.947v-3H63a1.453 1.453 0 011.541 1.488A1.474 1.474 0 0163 16.075zm-4.492 10.681h10.185c3.421 0 5.119-2.194 5.119-4.727a4.173 4.173 0 00-3.317-4.257 3.891 3.891 0 002.977-4c0-2.194-1.646-4.439-5.092-4.439h-9.872z" fill="#454648"/><path data-name="Path 4" d="M195.751 22.936a9.945 9.945 0 001.262-2.595 9.558 9.558 0 00.451-2.821h-1.363a.447.447 0 00-.35.138.635.635 0 00-.151.375 8.961 8.961 0 01-.376 1.833 9.287 9.287 0 01-.763 1.77l-5.153-5.241a10.736 10.736 0 01-.814-.9 5.506 5.506 0 01-.556-.838 3.615 3.615 0 01-.319-.814 3.4 3.4 0 01-.1-.838 2.855 2.855 0 01.187-1.044 2.39 2.39 0 01.545-.838 2.488 2.488 0 01.863-.557 3.057 3.057 0 011.132-.2 2.508 2.508 0 011.007.187 2.562 2.562 0 01.739.476 2.6 2.6 0 01.5.638 3.031 3.031 0 01.281.675q.2.488.613.388l1.389-.276a3.82 3.82 0 00-.394-1.445 4.008 4.008 0 00-.933-1.219 4.578 4.578 0 00-1.4-.844 4.9 4.9 0 00-1.8-.319 5.56 5.56 0 00-2.007.344 4.545 4.545 0 00-1.521.938 4.042 4.042 0 00-.957 1.395 4.441 4.441 0 00-.331 1.714 5.015 5.015 0 00.363 1.883 7.8 7.8 0 001.126 1.882 8.229 8.229 0 00-1.564.9 6.437 6.437 0 00-1.238 1.188 5.313 5.313 0 00-.819 1.445 4.672 4.672 0 00-.294 1.657 4.611 4.611 0 00.463 2.089 4.876 4.876 0 001.226 1.57 5.448 5.448 0 001.72.982 5.83 5.83 0 001.958.338 8.329 8.329 0 003.371-.67 9.072 9.072 0 002.707-1.803l1.814 1.826a1.434 1.434 0 00.488.363 1.648 1.648 0 00.588.087h2.164zm-2.515.313a6.425 6.425 0 01-1.958 1.376 5.977 5.977 0 01-2.52.513 3.838 3.838 0 01-1.276-.219 3.368 3.368 0 01-1.113-.644 3.183 3.183 0 01-1.088-2.477 3.841 3.841 0 01.669-2.176 5.325 5.325 0 012-1.7z" fill="#454648"/><path data-name="Path 5" d="M193.9 66.886h1.46v-2.807l2.622-4.052h-1.666l-1.686 2.756-1.707-2.756h-1.666l2.643 4.052zm-7.218 0h1.472v-5.574h1.992v-1.286h-5.47v1.286h2zm-4.908 0h1.46v-6.86h-1.46zm-3.488 0h1.409v-6.86h-1.461v4.443l-3.178-4.443h-1.5v6.86h1.461v-4.608zm-12.921-2.736c0 1.686.977 2.859 3.075 2.859 2.077 0 3.054-1.162 3.054-2.869v-4.114h-1.481v4.072a1.584 1.584 0 11-3.168 0v-4.073h-1.479zm-3.53 2.736h1.471v-6.86h-2.06l-1.666 4.279-1.666-4.279h-2.047v6.86h1.461v-4.937l1.933 4.937h.638l1.934-4.937zm-9.522 0h1.471v-6.86h-2.057l-1.666 4.279-1.666-4.279h-2.049v6.86h1.461v-4.937l1.934 4.937h.637l1.934-4.937zm-9.18-3.424a2.089 2.089 0 11-2.088-2.253 2.088 2.088 0 012.088 2.253m-5.667 0a3.584 3.584 0 103.579-3.548 3.444 3.444 0 00-3.579 3.548m-3.994 3.548a3.183 3.183 0 002.921-1.686l-1.254-.607a1.859 1.859 0 01-1.666 1 2.258 2.258 0 010-4.5 1.879 1.879 0 011.666 1l1.254-.617a3.165 3.165 0 00-2.921-1.676 3.55 3.55 0 100 7.1m-10.161-.123h1.461v-6.86h-1.275l-2.16 2.17.834.874 1.141-1.162zm-4.813 0h1.46v-6.86h-1.275l-2.159 2.17.833.874 1.142-1.162zm-6.032.206h.946l2.438-7.271h-.946zm-2.268-4.474a1.758 1.758 0 01-1.347.638c-.658 0-1.265-.319-1.265-1.049a1.107 1.107 0 011.2-1.028 1.42 1.42 0 011.409 1.44m-3.722 3.672a3 3 0 002.015.71c2.026 0 3.188-1.471 3.188-3.538 0-1.944-.874-3.548-2.951-3.548a2.418 2.418 0 00-2.632 2.355 2.179 2.179 0 002.344 2.222 2.271 2.271 0 001.77-.885v.144a1.794 1.794 0 01-1.718 1.975 1.852 1.852 0 01-1.367-.525zm-10.078.6h4.851v-1.265h-3.394v-1.594h3.322v-1.255h-3.322v-1.491h3.394v-1.255h-4.853zm-3.547 0h1.47v-6.86h-1.472v2.694h-3.239v-2.694h-1.461v6.86h1.461v-2.88h3.239zm-9.618 0h1.47v-5.574h2v-1.286h-5.47v1.286h2.005zm-8.248-4.659a.947.947 0 01-1.028.946h-1.532v-1.892h1.532a.946.946 0 011.028.946m-.144 4.659h1.676l-1.543-2.612a1.968 1.968 0 001.5-2.036 2.137 2.137 0 00-2.3-2.211h-3.209v6.86h1.461v-2.458h1.069zm-7.093-3.424a2.089 2.089 0 11-2.088-2.253 2.088 2.088 0 012.088 2.253m-5.667 0a3.584 3.584 0 103.579-3.548 3.444 3.444 0 00-3.579 3.548m-6.152 3.424h1.461v-2.859h3.322v-1.255h-3.322v-1.491h3.394v-1.255h-4.854zm-10.715-.967a3.952 3.952 0 002.91 1.09c1.851 0 2.746-.946 2.746-2.2 0-1.522-1.439-1.862-2.571-2.119-.792-.185-1.367-.329-1.367-.791 0-.411.35-.7 1.008-.7a2.928 2.928 0 011.965.75l.812-1.069a3.816 3.816 0 00-2.673-.956c-1.615 0-2.6.925-2.6 2.067 0 1.532 1.44 1.84 2.561 2.1.792.185 1.388.36 1.388.874 0 .391-.391.771-1.193.771a3.007 3.007 0 01-2.18-.925zm-2.761-3.692a.947.947 0 01-1.028.946H39.89v-1.892h1.532a.946.946 0 011.028.946m-.144 4.659h1.676l-1.542-2.612a1.968 1.968 0 001.5-2.036 2.136 2.136 0 00-2.3-2.211h-3.209v6.86h1.46v-2.458h1.07zm-10.659 0h4.854v-1.265h-3.39v-1.594h3.322v-1.255h-3.322v-1.491h3.394v-1.255h-4.859zm-5.4 0h1.46v-2.807l2.622-4.052h-1.66l-1.687 2.756-1.707-2.756h-1.666l2.643 4.052zm-7.156 0h1.555l1.954-6.86h-1.642l-1.193 4.957-1.3-4.957h-1.137l-1.306 4.957-1.2-4.957h-1.638l1.964 6.86h1.553l1.193-4.71zm-9.745-5.614l1.132 3.147H8.202zm1.965 5.595h1.594l-2.643-6.86h-1.83l-2.653 6.86h1.6l.431-1.183h3.066zm-11.041 0h4.36v-1.289h-2.9v-5.574H.267z" fill="#007bc7"/><path data-name="Path 6" d="M24.128 41.761c-.009.009 0 .017.022.022-.006-.019-.012-.03-.022-.022" fill="#58595b"/></g></g><g data-name="Group 6"><g data-name="Group 5" clip-path="url(#c)" transform="translate(.017 .001)"><path data-name="Path 7" d="M68.684 41.761c.009.009 0 .017-.022.022.006-.019.012-.03.022-.022" fill="#58595b"/><path data-name="Path 8" d="M62.712 51.626v-9.865h-.41l-.319-1.162-.246 1.162h-.15v-2.872h-.485v-1.434h-3.385v7.108l-.224-.056v-2.245l-.65-3.958-.65 3.958v2.363h-.31v-1.272h-.461v.46h-.368v.322h-.783v.49h-.46v-2.7h-.924v-3.353h-2.531v.685h-.365v1.454h-.176v-.11l-.446.006v-.326h-2v-1.978h-.167v-2.192h-1.61v2.2h-.167v1.975h-2v.326l-.446-.006v.11h-.175v-1.459h-.365v-.685h-2.532v3.354h-.924v2.7h-.46v-.49h-.783v-.325h-.368v-.46h-.461v1.272h-.313v-2.361l-.65-3.958-.65 3.958v2.249l-.223.056v-7.112h-3.387v1.434h-.485v2.872h-.15l-.245-1.162-.315 1.162h-.855v-2.642h-.644v.552h-1.841v-.414h-.87v.6h-.645v-.461h-.69v2.394a4.889 4.889 0 01-.81-.006 12.731 12.731 0 01-.022 1.457h-.51v1.561h-.423v-2.481l-.472-.886-.472 1.063v1.772h-.351v-6.519H19.46v1.046h-.269v2.242h-.875v-3.164h-1.551v-2.541h-1.973v1.254h-1.909v4.964h-.18v2.039l-.179.178V28.185h-.361v-2.564h-.361v-1.084h-.361v-.426h-.395v-.592l-.329.067v-.3l-.2-.033s-.018-2.5 0-2.958a.556.556 0 00-.52-.565v-1.31h-.164v1.3c-.633.024-.664.51-.664.51v3.287h-.493v.526h-.393v.526l-.394.032v.92l-.3.033v2.6h-.2v13.069l-.3.242v.266h-.031v.749h-.427v-7.369H4.619v7.92h-.086l-.945-.945v-6.419h-.6v-.556H1.415v-3.714h-1.4v7.674h-.032v12.574l46.423-.029z" fill="#454648"/></g></g></svg>